<?xml version="1.0" encoding="utf-8"?>
<!-- License: MIT. Made by phosphor: https://github.com/phosphor-icons/phosphor-icons -->
<svg fill="#000000" width="800px" height="800px" viewBox="0 0 256 256" id="Flat" xmlns="http://www.w3.org/2000/svg">
  <path d="M213.65723,82.34277l-56-56A8.00235,8.00235,0,0,0,152,24H55.99219a16.01833,16.01833,0,0,0-16,16V216a16.01833,16.01833,0,0,0,16,16H200a16.01833,16.01833,0,0,0,16-16V88A8.00235,8.00235,0,0,0,213.65723,82.34277ZM200,216H55.99219V40h92.69433L200,91.314l.00977,124.68555ZM176,112H80a8.00039,8.00039,0,0,0-8,8v72a8.00039,8.00039,0,0,0,8,8h96a8.00039,8.00039,0,0,0,8-8V120A8.00039,8.00039,0,0,0,176,112Zm-56,64a8,8,0,0,1-16,0V136a8,8,0,0,1,16,0Zm32,0a8,8,0,0,1-16,0V136a8,8,0,0,1,16,0Z"/>
</svg>